<svg xmlns="http://www.w3.org/2000/svg" version="1.1" xmlns:xlink="http://www.w3.org/1999/xlink" width="1000" height="1000"><g clip-path="url(#SvgjsClipPath1385)"><rect width="1000" height="1000" fill="#363232"></rect><g transform="matrix(3.90625,0,0,3.90625,0,0)"><svg xmlns="http://www.w3.org/2000/svg" width="256" height="256" viewBox="0 0 256 256" fill="none"><defs>
    <linearGradient id="bg" x1="32" y1="32" x2="224" y2="224" gradientUnits="userSpaceOnUse">
      <stop offset="0%" stop-color="#273243"></stop>
      <stop offset="100%" stop-color="#1F2936"></stop>
    </linearGradient>
  <clipPath id="SvgjsClipPath1385"><rect width="1000" height="1000" x="0" y="0" rx="200" ry="200"></rect></clipPath></defs><rect x="32" y="32" width="192" height="192" rx="44" fill="url(#bg)"></rect><path d="M65.000,92.728 L82.033,92.728 L82.033,117.903 L107.165,117.903 L107.165,92.728 L124.198,92.728 L124.198,158.794 L107.165,158.794 L107.165,130.788 L82.033,130.788 L82.033,158.794 L65.000,158.794 L65.000,92.728 Z M191.000,155.070 Q184.628,158.171 177.776,159.728 Q170.923,161.272 163.617,161.272 Q147.107,161.272 137.465,152.040 Q127.823,142.808 127.823,127.021 Q127.823,111.050 137.635,101.889 Q147.461,92.728 164.551,92.728 Q171.135,92.728 177.167,93.974 Q183.213,95.206 188.565,97.642 L188.565,111.305 Q183.043,108.176 177.577,106.632 Q172.112,105.075 166.618,105.075 Q156.452,105.075 150.944,110.767 Q145.437,116.445 145.437,127.021 Q145.437,137.499 150.746,143.219 Q156.056,148.925 165.825,148.925 Q168.487,148.925 170.767,148.599 Q173.047,148.260 174.859,147.552 L174.859,134.724 L164.452,134.724 L164.452,123.297 L191.000,123.297 L191.000,155.070 Z" fill="#F7F9FC"></path></svg></g></g></svg>